<svg width="20" height="17" viewBox="0 0 20 17" fill="none" xmlns="http://www.w3.org/2000/svg">
<path d="M16 9.5V7.5H20V9.5H16ZM17.2 16.5L14 14.1L15.2 12.5L18.4 14.9L17.2 16.5ZM15.2 4.5L14 2.9L17.2 0.5L18.4 2.1L15.2 4.5ZM3 15.5V11.5H2C1.45 11.5 0.979167 11.3042 0.5875 10.9125C0.195833 10.5208 0 10.05 0 9.5V7.5C0 6.95 0.195833 6.47917 0.5875 6.0875C0.979167 5.69583 1.45 5.5 2 5.5H6L11 2.5V14.5L6 11.5H5V15.5H3ZM9 10.95V6.05L6.55 7.5H2V9.5H6.55L9 10.95ZM12 11.85V5.15C12.45 5.55 12.8125 6.0375 13.0875 6.6125C13.3625 7.1875 13.5 7.81667 13.5 8.5C13.5 9.18333 13.3625 9.8125 13.0875 10.3875C12.8125 10.9625 12.45 11.45 12 11.85Z" fill="#2AAFFC"/>
</svg>
