<svg width="20" height="21" viewBox="0 0 20 21" fill="none" xmlns="http://www.w3.org/2000/svg">
<path d="M0 8.49995C0 6.83329 0.370833 5.30412 1.1125 3.91245C1.85417 2.52078 2.85 1.36662 4.1 0.449951L5.275 2.04995C4.275 2.78328 3.47917 3.70828 2.8875 4.82495C2.29583 5.94162 2 7.16662 2 8.49995H0ZM18 8.49995C18 7.16662 17.7042 5.94162 17.1125 4.82495C16.5208 3.70828 15.725 2.78328 14.725 2.04995L15.9 0.449951C17.15 1.36662 18.1458 2.52078 18.8875 3.91245C19.6292 5.30412 20 6.83329 20 8.49995H18ZM2 17.5V15.5H4V8.49995C4 7.11662 4.41667 5.88745 5.25 4.81245C6.08333 3.73745 7.16667 3.03328 8.5 2.69995V1.99995C8.5 1.58328 8.64583 1.22912 8.9375 0.937451C9.22917 0.645785 9.58333 0.499951 10 0.499951C10.4167 0.499951 10.7708 0.645785 11.0625 0.937451C11.3542 1.22912 11.5 1.58328 11.5 1.99995V2.69995C12.8333 3.03328 13.9167 3.73745 14.75 4.81245C15.5833 5.88745 16 7.11662 16 8.49995V15.5H18V17.5H2ZM10 20.5C9.45 20.5 8.97917 20.3041 8.5875 19.9125C8.19583 19.5208 8 19.05 8 18.5H12C12 19.05 11.8042 19.5208 11.4125 19.9125C11.0208 20.3041 10.55 20.5 10 20.5ZM6 15.5H14V8.49995C14 7.39995 13.6083 6.45828 12.825 5.67495C12.0417 4.89162 11.1 4.49995 10 4.49995C8.9 4.49995 7.95833 4.89162 7.175 5.67495C6.39167 6.45828 6 7.39995 6 8.49995V15.5Z" fill="#FF3A55"/>
</svg>
